<svg width="165" height="25" viewBox="0 0 165 25" fill="none" xmlns="http://www.w3.org/2000/svg">
<path d="M4.23857 21.2195L2.8822 19.8631L12.8128 9.93256C12.5221 9.25437 12.4817 8.48738 12.6917 7.63157C12.9016 6.77577 13.3618 6.00878 14.0722 5.33059C14.928 4.47479 15.8807 3.97422 16.9303 3.8289C17.9799 3.68357 18.8357 3.94193 19.4977 4.60397C20.1598 5.266 20.4181 6.12181 20.2728 7.17138C20.1275 8.22095 19.6269 9.17364 18.7711 10.0294C18.0929 10.7399 17.3259 11.2001 16.4701 11.41C15.6143 11.6199 14.8473 11.5796 14.1691 11.2889L12.9581 12.5L20.3212 19.8631L18.9649 21.2195L11.6017 13.9048L4.23857 21.2195ZM7.09663 12.9359L4.19013 10.0294C3.31818 9.15749 2.8822 8.11599 2.8822 6.90495C2.8822 5.69391 3.31818 4.65241 4.19013 3.78046L10.1969 9.83567L7.09663 12.9359Z" fill="black"/>
<path d="M35.9436 14.309H32.0135V12.0453H35.9436C36.5864 12.0453 37.1069 11.9405 37.5051 11.7309C37.9103 11.5143 38.2073 11.2208 38.3959 10.8505C38.5846 10.4732 38.6789 10.0436 38.6789 9.56146C38.6789 9.09335 38.5846 8.65667 38.3959 8.25144C38.2073 7.84621 37.9103 7.51783 37.5051 7.2663C37.1069 7.01478 36.5864 6.88902 35.9436 6.88902H32.9567V19.874H30.0747V4.61482H35.9436C37.1313 4.61482 38.1444 4.82791 38.9828 5.25411C39.8282 5.67332 40.471 6.25671 40.9112 7.0043C41.3583 7.7449 41.5819 8.5903 41.5819 9.5405C41.5819 10.5256 41.3583 11.3745 40.9112 12.0872C40.471 12.7998 39.8282 13.3483 38.9828 13.7326C38.1444 14.1168 37.1313 14.309 35.9436 14.309ZM48.5827 20.0836C47.7233 20.0836 46.9513 19.9438 46.2665 19.6644C45.5818 19.3849 44.9984 18.9971 44.5164 18.5011C44.0413 17.998 43.6744 17.4146 43.4159 16.7509C43.1644 16.0801 43.0387 15.3605 43.0387 14.592V14.1727C43.0387 13.2994 43.1644 12.5064 43.4159 11.7937C43.6675 11.0741 44.0238 10.4558 44.4849 9.93875C44.946 9.42173 45.498 9.02348 46.1408 8.74401C46.7836 8.46454 47.4927 8.3248 48.2683 8.3248C49.0717 8.3248 49.7809 8.46104 50.3957 8.73353C51.0106 8.99903 51.5241 9.37631 51.9363 9.86539C52.3485 10.3545 52.6595 10.9414 52.8691 11.6261C53.0787 12.3038 53.1835 13.0549 53.1835 13.8793V15.0426H44.2963V13.1352H50.4586V12.9256C50.4446 12.4854 50.3608 12.0837 50.2071 11.7204C50.0534 11.3501 49.8158 11.0566 49.4944 10.84C49.1731 10.6165 48.7573 10.5047 48.2473 10.5047C47.8351 10.5047 47.4753 10.5955 47.1678 10.7772C46.8674 10.9518 46.6159 11.2034 46.4133 11.5317C46.2176 11.8531 46.0709 12.2374 45.9731 12.6846C45.8753 13.1317 45.8264 13.6278 45.8264 14.1727V14.592C45.8264 15.0671 45.8893 15.5072 46.015 15.9125C46.1478 16.3177 46.3399 16.6705 46.5914 16.971C46.8499 17.2644 47.1574 17.495 47.5137 17.6626C47.877 17.8233 48.2892 17.9037 48.7504 17.9037C49.3303 17.9037 49.8543 17.7919 50.3224 17.5683C50.7975 17.3378 51.2097 16.9989 51.559 16.5517L52.9529 17.998C52.7154 18.3473 52.394 18.6827 51.9887 19.0041C51.5905 19.3255 51.1084 19.5875 50.5425 19.7901C49.9765 19.9858 49.3233 20.0836 48.5827 20.0836ZM57.8052 10.8505V19.874H55.0385V8.53441H57.6585L57.8052 10.8505ZM61.2532 8.46104L61.2113 11.0392C61.0576 11.0112 60.8829 10.9903 60.6873 10.9763C60.4986 10.9623 60.3205 10.9553 60.1528 10.9553C59.7266 10.9553 59.3528 11.0147 59.0314 11.1335C58.71 11.2453 58.441 11.4095 58.2244 11.6261C58.0148 11.8426 57.8541 12.1081 57.7423 12.4226C57.6306 12.73 57.5677 13.0793 57.5537 13.4706L56.9563 13.3972C56.9563 12.6776 57.0297 12.0103 57.1764 11.3955C57.3231 10.7807 57.5362 10.2427 57.8157 9.78155C58.0952 9.32042 58.4445 8.96409 58.8637 8.71257C59.2899 8.45406 59.779 8.3248 60.331 8.3248C60.4847 8.3248 60.6488 8.33878 60.8235 8.36672C61.0052 8.38768 61.1484 8.41912 61.2532 8.46104ZM66.5876 19.874H63.7999V7.48639C63.7999 6.634 63.9641 5.91785 64.2925 5.33795C64.6208 4.75106 65.089 4.3074 65.6968 4.00697C66.3047 3.70653 67.0208 3.55632 67.8452 3.55632C68.1177 3.55632 68.3762 3.57379 68.6208 3.60872C68.8723 3.64365 69.1203 3.69256 69.3649 3.75544L69.3125 5.86196C69.1797 5.82702 69.033 5.80257 68.8723 5.7886C68.7186 5.77462 68.5474 5.76764 68.3588 5.76764C67.9815 5.76764 67.6601 5.83401 67.3946 5.96676C67.1291 6.09951 66.9265 6.29514 66.7867 6.55365C66.654 6.80518 66.5876 7.11609 66.5876 7.48639V19.874ZM68.8828 8.53441V10.5256H62.0916V8.53441H68.8828ZM75.4329 20.0836C74.5735 20.0836 73.8015 19.9438 73.1168 19.6644C72.4321 19.3849 71.8487 18.9971 71.3666 18.5011C70.8915 17.998 70.5247 17.4146 70.2662 16.7509C70.0146 16.0801 69.8889 15.3605 69.8889 14.592V14.1727C69.8889 13.2994 70.0146 12.5064 70.2662 11.7937C70.5177 11.0741 70.874 10.4558 71.3351 9.93875C71.7963 9.42173 72.3482 9.02348 72.991 8.74401C73.6338 8.46454 74.343 8.3248 75.1185 8.3248C75.922 8.3248 76.6311 8.46104 77.246 8.73353C77.8608 8.99903 78.3743 9.37631 78.7866 9.86539C79.1988 10.3545 79.5097 10.9414 79.7193 11.6261C79.9289 12.3038 80.0337 13.0549 80.0337 13.8793V15.0426H71.1465V13.1352H77.3088V12.9256C77.2949 12.4854 77.211 12.0837 77.0573 11.7204C76.9036 11.3501 76.6661 11.0566 76.3447 10.84C76.0233 10.6165 75.6076 10.5047 75.0975 10.5047C74.6853 10.5047 74.3255 10.5955 74.0181 10.7772C73.7176 10.9518 73.4661 11.2034 73.2635 11.5317C73.0679 11.8531 72.9211 12.2374 72.8233 12.6846C72.7255 13.1317 72.6766 13.6278 72.6766 14.1727V14.592C72.6766 15.0671 72.7395 15.5072 72.8652 15.9125C72.998 16.3177 73.1901 16.6705 73.4417 16.971C73.7002 17.2644 74.0076 17.495 74.3639 17.6626C74.7272 17.8233 75.1394 17.9037 75.6006 17.9037C76.1805 17.9037 76.7045 17.7919 77.1726 17.5683C77.6477 17.3378 78.0599 16.9989 78.4093 16.5517L79.8031 17.998C79.5656 18.3473 79.2442 18.6827 78.839 19.0041C78.4407 19.3255 77.9586 19.5875 77.3927 19.7901C76.8268 19.9858 76.1735 20.0836 75.4329 20.0836ZM86.5419 17.9037C86.9331 17.9037 87.2825 17.8268 87.5899 17.6731C87.8973 17.5194 88.1419 17.3028 88.3235 17.0234C88.5122 16.7439 88.6135 16.419 88.6274 16.0487H91.237C91.223 16.8172 91.0064 17.5054 90.5872 18.1133C90.168 18.7211 89.6091 19.2032 88.9104 19.5596C88.2187 19.9089 87.4432 20.0836 86.5838 20.0836C85.7105 20.0836 84.9489 19.9368 84.2991 19.6434C83.6494 19.35 83.1079 18.9412 82.6747 18.4172C82.2485 17.8932 81.9271 17.2854 81.7105 16.5937C81.5009 15.902 81.3961 15.1614 81.3961 14.3719V14.0365C81.3961 13.247 81.5009 12.5064 81.7105 11.8147C81.9271 11.123 82.2485 10.5152 82.6747 9.99115C83.1079 9.46714 83.6494 9.05841 84.2991 8.76497C84.9489 8.47152 85.707 8.3248 86.5733 8.3248C87.4886 8.3248 88.2921 8.50296 88.9838 8.85929C89.6824 9.21562 90.2274 9.71867 90.6187 10.3684C91.0169 11.0182 91.223 11.7833 91.237 12.6636H88.6274C88.6135 12.2584 88.5226 11.8951 88.355 11.5737C88.1873 11.2523 87.9497 10.9938 87.6423 10.7981C87.3349 10.6025 86.9611 10.5047 86.5209 10.5047C86.0528 10.5047 85.6616 10.6025 85.3471 10.7981C85.0397 10.9938 84.7987 11.2627 84.624 11.6051C84.4563 11.9405 84.3376 12.3178 84.2677 12.737C84.2048 13.1492 84.1734 13.5824 84.1734 14.0365V14.3719C84.1734 14.833 84.2048 15.2732 84.2677 15.6924C84.3376 16.1116 84.4563 16.4889 84.624 16.8242C84.7987 17.1526 85.0397 17.4146 85.3471 17.6102C85.6616 17.8059 86.0598 17.9037 86.5419 17.9037ZM98.4474 8.53441V10.5256H91.9497V8.53441H98.4474ZM93.6894 5.74668H96.4666V16.6041C96.4666 16.9395 96.512 17.198 96.6029 17.3797C96.6937 17.5613 96.8299 17.6836 97.0116 17.7465C97.1932 17.8094 97.4098 17.8408 97.6614 17.8408C97.843 17.8408 98.0107 17.8303 98.1644 17.8094C98.3181 17.7884 98.4474 17.7674 98.5522 17.7465L98.5627 19.8216C98.3321 19.8984 98.0701 19.9613 97.7766 20.0102C97.4902 20.0591 97.1653 20.0836 96.802 20.0836C96.1802 20.0836 95.6352 19.9788 95.1671 19.7692C94.699 19.5526 94.3357 19.2067 94.0771 18.7316C93.8186 18.2495 93.6894 17.6137 93.6894 16.8242V5.74668Z" fill="black"/>
<path d="M100.501 4.61482H106.046C107.205 4.61482 108.201 4.78949 109.032 5.13883C109.864 5.48817 110.503 6.00519 110.95 6.68989C111.397 7.3746 111.621 8.21651 111.621 9.21562C111.621 10.0051 111.481 10.6898 111.202 11.2697C110.922 11.8496 110.528 12.3352 110.017 12.7265C109.514 13.1177 108.921 13.4252 108.236 13.6487L107.335 14.1099H102.44L102.419 11.8357H106.077C106.671 11.8357 107.163 11.7309 107.555 11.5213C107.946 11.3117 108.239 11.0217 108.435 10.6514C108.638 10.2811 108.739 9.8584 108.739 9.3833C108.739 8.87326 108.641 8.4331 108.445 8.0628C108.25 7.68551 107.953 7.39556 107.555 7.19294C107.156 6.99033 106.653 6.88902 106.046 6.88902H103.384V19.874H100.501V4.61482ZM109.116 19.874L105.584 13.0409L108.634 13.0304L112.208 19.7272V19.874H109.116ZM119.03 20.0836C118.171 20.0836 117.399 19.9438 116.714 19.6644C116.03 19.3849 115.446 18.9971 114.964 18.5011C114.489 17.998 114.122 17.4146 113.864 16.7509C113.612 16.0801 113.486 15.3605 113.486 14.592V14.1727C113.486 13.2994 113.612 12.5064 113.864 11.7937C114.115 11.0741 114.472 10.4558 114.933 9.93875C115.394 9.42173 115.946 9.02348 116.589 8.74401C117.231 8.46454 117.941 8.3248 118.716 8.3248C119.52 8.3248 120.229 8.46104 120.844 8.73353C121.458 8.99903 121.972 9.37631 122.384 9.86539C122.796 10.3545 123.107 10.9414 123.317 11.6261C123.526 12.3038 123.631 13.0549 123.631 13.8793V15.0426H114.744V13.1352H120.906V12.9256C120.892 12.4854 120.809 12.0837 120.655 11.7204C120.501 11.3501 120.264 11.0566 119.942 10.84C119.621 10.6165 119.205 10.5047 118.695 10.5047C118.283 10.5047 117.923 10.5955 117.616 10.7772C117.315 10.9518 117.064 11.2034 116.861 11.5317C116.665 11.8531 116.519 12.2374 116.421 12.6846C116.323 13.1317 116.274 13.6278 116.274 14.1727V14.592C116.274 15.0671 116.337 15.5072 116.463 15.9125C116.596 16.3177 116.788 16.6705 117.039 16.971C117.298 17.2644 117.605 17.495 117.961 17.6626C118.325 17.8233 118.737 17.9037 119.198 17.9037C119.778 17.9037 120.302 17.7919 120.77 17.5683C121.245 17.3378 121.657 16.9989 122.007 16.5517L123.401 17.998C123.163 18.3473 122.842 18.6827 122.437 19.0041C122.038 19.3255 121.556 19.5875 120.99 19.7901C120.424 19.9858 119.771 20.0836 119.03 20.0836ZM130.139 17.9037C130.531 17.9037 130.88 17.8268 131.187 17.6731C131.495 17.5194 131.739 17.3028 131.921 17.0234C132.11 16.7439 132.211 16.419 132.225 16.0487H134.835C134.821 16.8172 134.604 17.5054 134.185 18.1133C133.766 18.7211 133.207 19.2032 132.508 19.5596C131.816 19.9089 131.041 20.0836 130.181 20.0836C129.308 20.0836 128.546 19.9368 127.897 19.6434C127.247 19.35 126.705 18.9412 126.272 18.4172C125.846 17.8932 125.525 17.2854 125.308 16.5937C125.098 15.902 124.994 15.1614 124.994 14.3719V14.0365C124.994 13.247 125.098 12.5064 125.308 11.8147C125.525 11.123 125.846 10.5152 126.272 9.99115C126.705 9.46714 127.247 9.05841 127.897 8.76497C128.546 8.47152 129.305 8.3248 130.171 8.3248C131.086 8.3248 131.89 8.50296 132.581 8.85929C133.28 9.21562 133.825 9.71867 134.216 10.3684C134.614 11.0182 134.821 11.7833 134.835 12.6636H132.225C132.211 12.2584 132.12 11.8951 131.953 11.5737C131.785 11.2523 131.547 10.9938 131.24 10.7981C130.932 10.6025 130.559 10.5047 130.118 10.5047C129.65 10.5047 129.259 10.6025 128.945 10.7981C128.637 10.9938 128.396 11.2627 128.222 11.6051C128.054 11.9405 127.935 12.3178 127.865 12.737C127.802 13.1492 127.771 13.5824 127.771 14.0365V14.3719C127.771 14.833 127.802 15.2732 127.865 15.6924C127.935 16.1116 128.054 16.4889 128.222 16.8242C128.396 17.1526 128.637 17.4146 128.945 17.6102C129.259 17.8059 129.657 17.9037 130.139 17.9037ZM139.614 8.53441V19.874H136.836V8.53441H139.614ZM136.648 5.56851C136.648 5.15629 136.787 4.81394 137.067 4.54146C137.353 4.26897 137.738 4.13273 138.22 4.13273C138.702 4.13273 139.083 4.26897 139.362 4.54146C139.648 4.81394 139.792 5.15629 139.792 5.56851C139.792 5.97375 139.648 6.31261 139.362 6.58509C139.083 6.85758 138.702 6.99382 138.22 6.99382C137.738 6.99382 137.353 6.85758 137.067 6.58509C136.787 6.31261 136.648 5.97375 136.648 5.56851ZM145.021 10.7143V24.2337H142.244V8.53441H144.812L145.021 10.7143ZM152.305 14.0889V14.309C152.305 15.1334 152.207 15.8985 152.012 16.6041C151.823 17.3028 151.543 17.9142 151.173 18.4382C150.803 18.9552 150.342 19.3604 149.79 19.6539C149.245 19.9403 148.616 20.0836 147.903 20.0836C147.205 20.0836 146.597 19.9508 146.08 19.6853C145.563 19.4128 145.126 19.0286 144.77 18.5325C144.413 18.0364 144.127 17.46 143.91 16.8033C143.701 16.1395 143.544 15.4164 143.439 14.6339V13.9317C143.544 13.1003 143.701 12.3457 143.91 11.668C144.127 10.9833 144.413 10.3929 144.77 9.89683C145.126 9.39378 145.559 9.00601 146.069 8.73353C146.586 8.46104 147.191 8.3248 147.882 8.3248C148.602 8.3248 149.234 8.46104 149.779 8.73353C150.331 9.00601 150.796 9.39727 151.173 9.90731C151.55 10.4173 151.833 11.0252 152.022 11.7309C152.211 12.4365 152.305 13.2225 152.305 14.0889ZM149.528 14.309V14.0889C149.528 13.5859 149.482 13.1212 149.392 12.695C149.301 12.2619 149.161 11.8846 148.972 11.5632C148.784 11.2348 148.539 10.9798 148.239 10.7981C147.938 10.6165 147.575 10.5256 147.149 10.5256C146.723 10.5256 146.356 10.5955 146.048 10.7352C145.741 10.875 145.489 11.0741 145.294 11.3326C145.098 11.5911 144.944 11.8985 144.833 12.2549C144.728 12.6042 144.658 12.992 144.623 13.4182V15.1579C144.686 15.6749 144.808 16.1395 144.99 16.5517C145.172 16.964 145.437 17.2923 145.786 17.5369C146.143 17.7814 146.604 17.9037 147.17 17.9037C147.596 17.9037 147.959 17.8094 148.26 17.6207C148.56 17.4321 148.805 17.1736 148.993 16.8452C149.182 16.5098 149.318 16.1256 149.402 15.6924C149.486 15.2592 149.528 14.7981 149.528 14.309ZM159.421 20.0836C158.562 20.0836 157.79 19.9438 157.105 19.6644C156.42 19.3849 155.837 18.9971 155.355 18.5011C154.88 17.998 154.513 17.4146 154.254 16.7509C154.003 16.0801 153.877 15.3605 153.877 14.592V14.1727C153.877 13.2994 154.003 12.5064 154.254 11.7937C154.506 11.0741 154.862 10.4558 155.323 9.93875C155.784 9.42173 156.336 9.02348 156.979 8.74401C157.622 8.46454 158.331 8.3248 159.107 8.3248C159.91 8.3248 160.619 8.46104 161.234 8.73353C161.849 8.99903 162.363 9.37631 162.775 9.86539C163.187 10.3545 163.498 10.9414 163.707 11.6261C163.917 12.3038 164.022 13.0549 164.022 13.8793V15.0426H155.135V13.1352H161.297V12.9256C161.283 12.4854 161.199 12.0837 161.046 11.7204C160.892 11.3501 160.654 11.0566 160.333 10.84C160.011 10.6165 159.596 10.5047 159.086 10.5047C158.673 10.5047 158.314 10.5955 158.006 10.7772C157.706 10.9518 157.454 11.2034 157.252 11.5317C157.056 11.8531 156.909 12.2374 156.812 12.6846C156.714 13.1317 156.665 13.6278 156.665 14.1727V14.592C156.665 15.0671 156.728 15.5072 156.853 15.9125C156.986 16.3177 157.178 16.6705 157.43 16.971C157.688 17.2644 157.996 17.495 158.352 17.6626C158.715 17.8233 159.128 17.9037 159.589 17.9037C160.169 17.9037 160.693 17.7919 161.161 17.5683C161.636 17.3378 162.048 16.9989 162.397 16.5517L163.791 17.998C163.554 18.3473 163.232 18.6827 162.827 19.0041C162.429 19.3255 161.947 19.5875 161.381 19.7901C160.815 19.9858 160.162 20.0836 159.421 20.0836Z" fill="#EE9B8E"/>
</svg>
